<?xml version="1.0" encoding="utf-8"?>
<!-- Generator: Adobe Illustrator 16.0.0, SVG Export Plug-In . SVG Version: 6.00 Build 0)  -->
<!DOCTYPE svg PUBLIC "-//W3C//DTD SVG 1.1//EN" "http://www.w3.org/Graphics/SVG/1.1/DTD/svg11.dtd">
<svg version="1.1" id="Layer_1" xmlns="http://www.w3.org/2000/svg" xmlns:xlink="http://www.w3.org/1999/xlink" x="0px" y="0px"
	 width="197.333px" height="30px" viewBox="0 0 197.333 30" enable-background="new 0 0 197.333 30" xml:space="preserve">
<g>
	<g>
		<g>
			<path fill="#27989F" d="M11.968,14.304c-0.48,1.842-1.009,3.672-1.584,5.488c-0.534,1.688-1.094,3.368-1.68,5.04H5.536
				c-0.478-1.107-0.926-2.229-1.344-3.359c-0.47-1.26-0.939-2.604-1.408-4.033c-0.491-1.496-0.96-3-1.408-4.51
				C0.906,11.349,0.448,9.738,0,8.096h4.096c0.192,0.896,0.416,1.861,0.672,2.896c0.256,1.035,0.523,2.09,0.8,3.168
				c0.277,1.077,0.565,2.128,0.864,3.152c0.299,1.022,0.597,1.963,0.896,2.814c0.665-2.042,1.273-4.102,1.824-6.176
				c0.277-1.045,0.539-2.064,0.784-3.056s0.464-1.925,0.656-2.8h2.976c0.431,1.959,0.895,3.912,1.392,5.856
				c0.268,1.05,0.556,2.097,0.864,3.136c0.31,1.045,0.624,2.06,0.944,3.04c0.277-0.854,0.565-1.792,0.864-2.814
				c0.299-1.024,0.592-2.077,0.88-3.152c0.288-1.077,0.56-2.133,0.816-3.168c0.256-1.035,0.48-2,0.672-2.896h4
				c-0.44,1.616-0.899,3.227-1.376,4.832c-0.47,1.579-0.939,3.083-1.408,4.511c-0.47,1.431-0.939,2.772-1.408,4.033
				c-0.419,1.135-0.878,2.256-1.376,3.358h-3.136c-0.587-1.675-1.158-3.354-1.712-5.04C12.988,17.98,12.449,16.15,11.968,14.304
				L11.968,14.304z M39.984,20.064c-0.384,1.088-0.928,2.016-1.632,2.783c-0.71,0.772-1.578,1.383-2.544,1.793
				c-0.992,0.426-2.085,0.639-3.28,0.639c-1.195,0-2.283-0.213-3.264-0.639c-0.96-0.412-1.822-1.023-2.528-1.793
				c-0.704-0.769-1.253-1.695-1.648-2.783s-0.592-2.293-0.592-3.617c0-1.322,0.197-2.522,0.592-3.599
				c0.395-1.077,0.95-2,1.664-2.768c0.712-0.766,1.58-1.372,2.544-1.776c0.981-0.416,2.059-0.624,3.232-0.624
				c1.173,0,2.256,0.208,3.248,0.624c0.968,0.399,1.836,1.005,2.544,1.776c0.704,0.768,1.253,1.69,1.648,2.768
				c0.395,1.077,0.592,2.277,0.592,3.599C40.56,17.771,40.368,18.977,39.984,20.064z M36.592,16.447c0-1.663-0.357-2.98-1.072-3.951
				c-0.715-0.97-1.712-1.456-2.992-1.456c-1.28,0-2.277,0.485-2.992,1.456c-0.715,0.97-1.072,2.288-1.072,3.951
				c0,1.686,0.357,3.02,1.072,4c0.715,0.982,1.712,1.473,2.992,1.473c1.28,0,2.277-0.49,2.992-1.473
				C36.235,19.467,36.592,18.133,36.592,16.447z M52.896,11.584c-0.32-0.107-0.763-0.219-1.328-0.336
				c-0.648-0.125-1.308-0.184-1.968-0.176c-0.427,0-0.88,0.043-1.36,0.128c-0.479,0.085-0.816,0.16-1.008,0.224v13.408H43.36V8.896
				c0.747-0.277,1.68-0.539,2.8-0.784c1.12-0.245,2.363-0.368,3.728-0.368c0.256,0,0.555,0.016,0.896,0.048
				c0.341,0.032,0.683,0.075,1.024,0.128c0.341,0.053,0.672,0.117,0.992,0.192c0.32,0.075,0.576,0.144,0.768,0.208L52.896,11.584z
				 M58.928,14.624c0.524-0.548,1.047-1.097,1.568-1.648c0.55-0.582,1.094-1.168,1.632-1.76c0.533-0.587,1.04-1.152,1.52-1.696
				s0.89-1.019,1.232-1.424h4.576c-1.114,1.247-2.24,2.484-3.376,3.712c-1.17,1.266-2.36,2.514-3.568,3.745
				c0.712,0.602,1.385,1.248,2.016,1.936c0.719,0.773,1.402,1.58,2.048,2.416c0.661,0.854,1.28,1.707,1.856,2.561
				c0.521,0.764,1.002,1.555,1.44,2.368h-4.48c-0.416-0.711-0.858-1.403-1.328-2.08c-0.504-0.729-1.044-1.435-1.616-2.11
				c-0.562-0.668-1.149-1.314-1.76-1.938c-0.545-0.563-1.134-1.081-1.76-1.553v7.681h-3.872V0.64L58.928,0V14.624z M77.376,22.111
				c1.195,0,2.101-0.063,2.72-0.191v-4.288c-0.305-0.083-0.615-0.147-0.928-0.192c-0.445-0.065-0.894-0.099-1.344-0.096
				c-0.427,0-0.859,0.032-1.296,0.096c-0.41,0.058-0.81,0.177-1.184,0.354c-0.352,0.17-0.635,0.41-0.848,0.721
				s-0.32,0.698-0.32,1.168c0,0.918,0.288,1.553,0.864,1.903S76.395,22.111,77.376,22.111z M77.056,7.68
				c1.28,0,2.357,0.16,3.232,0.48c0.875,0.32,1.573,0.768,2.096,1.344c0.523,0.576,0.896,1.275,1.12,2.096
				c0.224,0.821,0.336,1.723,0.336,2.704v10.143c-0.597,0.129-1.499,0.283-2.704,0.465c-1.205,0.182-2.565,0.271-4.08,0.271
				c-1.003,0-1.92-0.097-2.752-0.287c-0.832-0.192-1.541-0.502-2.128-0.929c-0.591-0.432-1.063-1.004-1.376-1.663
				c-0.33-0.685-0.496-1.525-0.496-2.529c0-0.959,0.187-1.771,0.56-2.433c0.373-0.659,0.88-1.198,1.52-1.614
				c0.64-0.417,1.381-0.715,2.224-0.896c0.868-0.184,1.753-0.275,2.64-0.272c0.96,0.002,1.917,0.12,2.848,0.352v-0.64
				c0.002-0.432-0.052-0.862-0.16-1.28c-0.102-0.396-0.293-0.763-0.56-1.072c-0.287-0.323-0.65-0.571-1.056-0.72
				c-0.437-0.17-0.987-0.256-1.648-0.256c-0.896,0-1.717,0.064-2.464,0.192c-0.747,0.128-1.355,0.277-1.824,0.448l-0.48-3.136
				c0.49-0.17,1.205-0.341,2.144-0.512C74.987,7.766,75.989,7.68,77.056,7.68z M87.184,3.68l3.872-0.64v5.056h5.952v3.232h-5.952
				v6.816c0,1.344,0.213,2.303,0.639,2.879c0.428,0.576,1.152,0.865,2.177,0.865c0.704,0,1.328-0.076,1.872-0.226
				s0.977-0.288,1.296-0.416l0.64,3.071c-0.447,0.191-1.035,0.391-1.76,0.593s-1.579,0.304-2.561,0.304
				c-1.194,0-2.191-0.158-2.991-0.479c-0.8-0.32-1.435-0.784-1.904-1.394c-0.47-0.606-0.8-1.344-0.992-2.206
				c-0.192-0.865-0.288-1.852-0.288-2.962V3.68L87.184,3.68z M114.688,16.447c0,1.324-0.191,2.529-0.576,3.617
				c-0.383,1.088-0.928,2.016-1.631,2.783c-0.711,0.772-1.578,1.383-2.545,1.793c-0.992,0.426-2.084,0.639-3.279,0.639
				c-1.195,0-2.283-0.213-3.264-0.639c-0.961-0.412-1.822-1.023-2.529-1.793c-0.703-0.769-1.252-1.695-1.647-2.783
				s-0.592-2.293-0.592-3.617c0-1.322,0.196-2.522,0.592-3.599c0.396-1.077,0.95-2,1.664-2.768c0.712-0.766,1.579-1.372,2.544-1.776
				c0.98-0.416,2.059-0.624,3.232-0.624c1.173,0,2.256,0.208,3.248,0.624c0.967,0.399,1.836,1.005,2.543,1.776
				c0.705,0.768,1.254,1.69,1.648,2.768C114.491,13.925,114.688,15.125,114.688,16.447L114.688,16.447z M110.721,16.447
				c0-1.663-0.357-2.98-1.072-3.951c-0.715-0.97-1.713-1.456-2.992-1.456c-1.28,0-2.277,0.485-2.992,1.456
				c-0.715,0.97-1.072,2.288-1.072,3.951c0,1.686,0.357,3.02,1.072,4c0.715,0.982,1.712,1.473,2.992,1.473
				c1.279,0,2.277-0.49,2.992-1.473C110.363,19.467,110.721,18.133,110.721,16.447z M125,0h1v30h-1V0z"/>
		</g>
	</g>
	<g>
		<path fill="#27989F" d="M149.396,17.327c0,1.194-0.146,2.263-0.439,3.208c-0.293,0.944-0.727,1.743-1.298,2.395
			c-0.572,0.651-1.275,1.15-2.111,1.499c-0.835,0.348-1.795,0.521-2.879,0.521c-0.985,0-1.989-0.139-3.014-0.417
			c0.02-0.289,0.045-0.574,0.075-0.858c0.03-0.283,0.055-0.564,0.075-0.843c0.02-0.169,0.082-0.306,0.187-0.41
			s0.266-0.156,0.485-0.156c0.179,0,0.415,0.045,0.708,0.134c0.293,0.09,0.688,0.135,1.186,0.135c0.656,0,1.243-0.1,1.76-0.299
			c0.517-0.198,0.95-0.507,1.298-0.925c0.348-0.418,0.614-0.952,0.798-1.604s0.276-1.425,0.276-2.319V3.335h2.894V17.327z"/>
		<path fill="#27989F" d="M159.839,9.361c1.104,0,2.098,0.185,2.983,0.552c0.885,0.368,1.641,0.89,2.267,1.566
			c0.627,0.676,1.107,1.494,1.44,2.454c0.333,0.96,0.499,2.031,0.499,3.215c0,1.193-0.166,2.268-0.499,3.223
			c-0.333,0.954-0.813,1.771-1.44,2.446c-0.626,0.677-1.382,1.196-2.267,1.559c-0.886,0.363-1.88,0.545-2.983,0.545
			c-1.114,0-2.116-0.182-3.006-0.545c-0.891-0.362-1.648-0.882-2.275-1.559c-0.627-0.676-1.106-1.492-1.439-2.446
			c-0.334-0.955-0.5-2.029-0.5-3.223c0-1.184,0.166-2.255,0.5-3.215c0.333-0.959,0.813-1.777,1.439-2.454s1.385-1.198,2.275-1.566
			C157.723,9.546,158.725,9.361,159.839,9.361z M159.839,22.848c1.491,0,2.605-0.5,3.342-1.5c0.735-0.999,1.104-2.394,1.104-4.185
			c0-1.799-0.368-3.202-1.104-4.207c-0.736-1.004-1.851-1.506-3.342-1.506c-0.756,0-1.415,0.129-1.977,0.388
			c-0.563,0.259-1.029,0.632-1.402,1.119c-0.373,0.488-0.652,1.087-0.836,1.798s-0.275,1.514-0.275,2.409
			c0,1.791,0.37,3.186,1.111,4.185C157.201,22.348,158.328,22.848,159.839,22.848z"/>
		<path fill="#27989F" d="M173.056,11.778c0.637-0.736,1.354-1.323,2.155-1.76c0.8-0.438,1.724-0.657,2.768-0.657
			c0.885,0,1.683,0.169,2.394,0.507c0.711,0.338,1.315,0.828,1.813,1.47c0.498,0.641,0.878,1.419,1.142,2.334
			s0.396,1.944,0.396,3.088c0,1.224-0.149,2.337-0.447,3.342c-0.299,1.005-0.729,1.862-1.291,2.573
			c-0.562,0.711-1.245,1.263-2.051,1.655c-0.806,0.394-1.711,0.59-2.715,0.59c-0.995,0-1.833-0.187-2.514-0.56
			c-0.682-0.373-1.275-0.902-1.783-1.589l-0.134,1.373c-0.08,0.378-0.309,0.566-0.687,0.566h-1.715V2.738h2.67V11.778z
			 M173.056,21.072c0.486,0.656,1.021,1.118,1.604,1.387s1.221,0.403,1.917,0.403c1.422,0,2.511-0.502,3.267-1.507
			s1.134-2.501,1.134-4.49c0-1.85-0.335-3.209-1.007-4.08c-0.672-0.87-1.629-1.305-2.871-1.305c-0.865,0-1.619,0.199-2.261,0.597
			s-1.235,0.96-1.782,1.686V21.072z"/>
		<path fill="#27989F" d="M195.895,12.091c-0.12,0.219-0.304,0.328-0.553,0.328c-0.148,0-0.318-0.054-0.507-0.164
			c-0.189-0.109-0.42-0.231-0.693-0.365c-0.274-0.134-0.6-0.258-0.978-0.373c-0.378-0.114-0.825-0.171-1.343-0.171
			c-0.447,0-0.85,0.057-1.208,0.171c-0.358,0.115-0.664,0.271-0.917,0.47c-0.254,0.199-0.448,0.43-0.582,0.693
			c-0.135,0.264-0.201,0.55-0.201,0.858c0,0.388,0.111,0.711,0.335,0.97s0.52,0.482,0.888,0.671s0.786,0.355,1.253,0.5
			c0.468,0.144,0.947,0.298,1.439,0.462c0.493,0.164,0.973,0.346,1.44,0.545c0.467,0.198,0.885,0.447,1.253,0.745
			c0.367,0.299,0.663,0.664,0.888,1.097c0.224,0.433,0.335,0.952,0.335,1.56c0,0.695-0.124,1.34-0.373,1.932
			c-0.248,0.592-0.616,1.104-1.104,1.536s-1.084,0.773-1.79,1.022c-0.706,0.248-1.521,0.372-2.446,0.372
			c-1.055,0-2.01-0.171-2.864-0.515c-0.855-0.343-1.582-0.783-2.178-1.32l0.626-1.014c0.079-0.129,0.174-0.229,0.284-0.299
			c0.108-0.069,0.248-0.104,0.417-0.104c0.179,0,0.368,0.07,0.567,0.209c0.198,0.14,0.439,0.294,0.723,0.463
			c0.284,0.169,0.629,0.323,1.037,0.462c0.408,0.14,0.915,0.209,1.521,0.209c0.518,0,0.97-0.067,1.357-0.201
			c0.388-0.135,0.711-0.315,0.97-0.545c0.259-0.229,0.45-0.492,0.574-0.79c0.125-0.299,0.187-0.617,0.187-0.955
			c0-0.418-0.111-0.763-0.335-1.037c-0.225-0.273-0.521-0.507-0.888-0.701c-0.368-0.193-0.789-0.362-1.261-0.507
			c-0.473-0.144-0.955-0.296-1.447-0.455s-0.975-0.341-1.447-0.544c-0.472-0.204-0.893-0.46-1.26-0.769
			c-0.368-0.309-0.664-0.688-0.888-1.141c-0.225-0.453-0.336-1.002-0.336-1.648c0-0.577,0.119-1.131,0.357-1.664
			c0.239-0.532,0.587-1,1.045-1.402c0.457-0.403,1.02-0.724,1.686-0.962c0.666-0.239,1.427-0.358,2.282-0.358
			c0.994,0,1.888,0.157,2.678,0.47c0.791,0.313,1.475,0.744,2.052,1.291L195.895,12.091z"/>
	</g>
</g>
</svg>
